<?xml version="1.0" encoding="UTF-8"?><svg id="Capa_1" xmlns="http://www.w3.org/2000/svg" viewBox="0 0 1080 325"><defs><style>.cls-1{fill:#000;stroke-width:0px;}</style></defs><path class="cls-1" d="M301.18,140.51l1.62-5.95c.11-.79.25-1.3.43-1.52.19-.22.4-.34.63-.34.47,0,1.01.57,1.62,1.7.45.81.82,1.33,1.1,1.56.29.22.71.37,1.26.45l.39-.04,1.7.16,9.3.12,11-.04h3.23l6.11-.12c.27,0,.59.02.99.08,1.79.16,2.89.23,3.31.23.39,0,.71-.13.95-.39.08-.1.51-.97,1.3-2.6.34-.74.76-1.11,1.26-1.11.21,0,.47.05.79.16.13.52.2.99.2,1.41l-.04,1.57.04,3.32c0,.81-.06,3.42-.2,7.83,0,.29-.05.55-.16.78-.29.18-.54.27-.75.27s-.39-.1-.55-.29c-.16-.19-.35-.8-.59-1.82-.53-2.34-1.18-4.02-1.97-5.04-.53-.65-1.28-1.12-2.27-1.41-.99-.28-3.35-.43-7.08-.43h-6.66c-.05,1.05-.08,2.01-.08,2.88l.31,24.51c0,.97-.05,2.82-.16,5.53l.04,5.25-.04,2.92c0,.92.16,1.58.47,1.97.32.4,1.17.78,2.57,1.14,2.42.61,4.03.97,4.85,1.11.5.05.91.16,1.22.32v1.18l-5.6-.14c-3.08-.02-5.39-.08-6.94-.17l-5.76.28-4.22.23c-1.18,0-1.91-.03-2.17-.08l-.55-.24c.05-.61.17-.99.35-1.16.18-.17.67-.31,1.46-.41,1.11-.16,2.41-.44,3.91-.85,1.5-.41,2.48-.82,2.96-1.24.26-.24.45-.63.55-1.18.23-1.16.35-3.43.35-6.82v-6.7l-.16-14.63-.16-3.15-.04-10.53h-6.35c-3.78,0-6.08.23-6.9.69-1.29.71-3.21,2.8-5.76,6.27-.84,1.3-1.58,1.95-2.21,1.95l-.35-.08c-.11-.16-.16-.3-.16-.43,0-.32.21-1.26.63-2.84.53-2.02.84-3.39.95-4.1Z"/><path class="cls-1" d="M432.14,184.47c.26-.23.49-.37.67-.42.45-.13,1.21-.24,2.29-.32,2.55-.16,4.13-.39,4.74-.71.37-.53.55-1.26.55-2.21l-.04-2.76.04-10.03-.08-4.74.04-9.91-.2-11.26c-.03-2.68-.2-4.2-.51-4.54-.47-.5-1.88-.79-4.22-.87-1-.03-1.88-.11-2.64-.24-.34-.18-.51-.42-.51-.71,0-.21.07-.46.2-.75.24-.13.45-.2.63-.2.37,0,.82.01,1.34.04,1.55.16,3.15.24,4.81.24l2.92-.08,6.94.16c3.47,0,6.18-.04,8.12-.12,1.94-.08,3.26-.12,3.94-.12.6,0,2.1.05,4.49.16l5.6-.04.67.12,3.27-.12.39.2c.13.21.22.43.28.67,0,.37-.06.93-.18,1.69-.12.76-.18,1.24-.18,1.42,0,2.73.09,5.05.28,6.94-.02.16-.1.26-.23.32-.28,0-.54-.04-.77-.12-.29-.5-.68-1.38-1.17-2.64-.48-1.26-1.21-2.72-2.19-4.38-.66-1.1-1.17-1.76-1.54-1.97-.37-.21-1.13-.32-2.29-.32-.24,0-1.44-.03-3.59-.08-.58-.02-1.14-.04-1.7-.04l-11.25.24h-.99c-1.45,0-2.31.18-2.6.55-.45.63-.67,2.49-.67,5.56,0,.32.07,3.47.2,9.46v5.48c.29.08.6.12.95.12h.67c.44,0,1.1.01,1.97.04,1.36.05,2.29.08,2.76.08.32,0,.59-.01.83-.04,2.84-.11,6.49-.16,10.96-.16,1.39-.24,2.21-.51,2.45-.83.39-.47.69-1.71.89-3.71.2-2,.64-3.13,1.32-3.39.34,0,.66.06.95.2.05.21.08.41.08.59s-.02.49-.08.91c-.13.97-.2,4.02-.2,9.15,0,1.37.07,2.89.22,4.58.14,1.68.22,2.59.22,2.72,0,.24-.04.55-.12.95-.21.11-.38.16-.51.16h-.27c-.42-.73-.83-1.88-1.23-3.43-.68-2.65-1.4-4.32-2.15-4.99-.75-.67-1.96-1.01-3.65-1.01-.37,0-1.04.02-2.01.06-.97.04-2.42.06-4.34.06h-2.56c-3.65,0-6.04.08-7.18.24l-.04,1.3.04,7.27-.04,4.58.04,4.46c.02,2.69.2,4.24.51,4.66.44.58,1.42.87,2.92.87l2.4-.04c.21,0,1.03.02,2.47.06,1.43.04,3.2.06,5.3.06,5.07,0,8.45-.22,10.13-.65,1.68-.43,3.07-1.21,4.16-2.31,1.09-1.11,2.47-3.5,4.12-7.16.5-1.08,1-1.62,1.5-1.62.24,0,.5.1.79.32-.76,2.6-1.19,4.31-1.3,5.13-.29,1.84-.46,3.72-.51,5.64,0,.87-.21,1.59-.63,2.17h-.87l-11.08.12-4.97-.04-11.83.16h-4.81c-.6,0-1.17.01-1.69.04-4.73.21-8.22.32-10.45.32-.39,0-.66-.06-.81-.19-.14-.13-.22-.32-.22-.58l.04-.38Z"/><path class="cls-1" d="M595.27,136.41c.21,1.73.32,2.73.32,3l-.16,3.51c-.05,1.5-.12,2.46-.2,2.88-.24.11-.43.16-.59.16l-.35-.08c-.84-3.68-2.27-6.36-4.28-8.04-2.01-1.68-4.46-2.53-7.36-2.53s-5.45.84-7.37,2.53c-1.92,1.68-2.88,3.64-2.88,5.87,0,1.71.67,3.27,2.01,4.69,1.34,1.42,4.77,3.54,10.29,6.37,4.21,2.18,7.22,3.95,9.03,5.33,1.82,1.38,3.18,2.98,4.1,4.8.92,1.82,1.38,3.84,1.38,6.08,0,2.81-.73,5.46-2.19,7.93-1.46,2.47-3.43,4.34-5.9,5.59-2.47,1.25-5.74,1.88-9.82,1.88-3.55,0-6.95-.56-10.21-1.69-1.92-.68-3.09-1.24-3.51-1.66-.42-.42-.63-.87-.63-1.34,0-.29.02-.66.08-1.1.37-3.1.56-5.65.59-7.65.06-1.24.15-1.96.28-2.17.1-.19.3-.28.59-.28.24,0,.43.09.57.26.14.17.24.49.29.97.29,3.23,1.79,6.13,4.5,8.68,2.68,2.55,5.72,3.82,9.11,3.82,2.08,0,3.99-.43,5.74-1.3,1.75-.87,3.12-2.12,4.1-3.77.99-1.64,1.48-3.24,1.48-4.79,0-2.13-.75-4.07-2.25-5.84-1.5-1.76-4.51-3.82-9.03-6.17-4.52-2.35-7.47-4.07-8.83-5.15-2.21-1.76-3.87-3.63-4.97-5.6-.81-1.52-1.22-3.3-1.22-5.32,0-3.66,1.45-6.75,4.34-9.29,2.89-2.54,6.77-3.81,11.63-3.81,2.68,0,4.99.3,6.94.91,1.42.47,2.88,1.25,4.38,2.33Z"/><path class="cls-1" d="M687.08,159.87c0-2.68.32-5.07.97-7.16.64-2.09,1.73-4.36,3.25-6.8,1.53-2.44,3.37-4.49,5.52-6.13,2.15-1.64,5.14-3.1,8.95-4.36,2.68-.87,6.07-1.3,10.17-1.3,2.76,0,5.46.37,8.1,1.11,2.64.74,5.04,1.76,7.2,3.08,2.15,1.31,4.31,3.34,6.46,6.07,1.5,1.89,2.63,3.93,3.39,6.11,1,2.87,1.5,5.82,1.5,8.87,0,3.47-.34,6.35-1,8.64-.67,2.29-1.79,4.55-3.37,6.78-1.24,1.73-3.35,3.73-6.35,5.99-2,1.53-4.48,2.75-7.45,3.69-2.97.93-6.18,1.4-9.62,1.4s-6.61-.41-9.34-1.22c-2.74-.81-5.02-1.81-6.84-2.98-1.83-1.17-3.71-2.9-5.64-5.19-1.93-2.29-3.4-4.81-4.39-7.57-1-2.76-1.5-5.77-1.5-9.03ZM714.45,184.4c2.21,0,4.5-.31,6.88-.93,2.38-.62,4.49-1.64,6.33-3.08,1.84-1.43,3.28-3.06,4.32-4.89,1.04-1.83,1.87-4.18,2.5-7.04.63-2.87.95-5.73.95-8.6,0-3.58-.53-7.11-1.58-10.61-.81-2.66-2.14-5.03-3.98-7.12-1.84-2.09-4.06-3.71-6.66-4.85-2.6-1.15-5.38-1.72-8.32-1.72-2.39,0-4.74.39-7.02,1.18-2.28.79-4.16,1.79-5.64,3.02-1.47,1.22-2.84,2.96-4.1,5.2-1.26,2.25-2.22,4.73-2.88,7.43-.66,2.71-.99,5.1-.99,7.18,0,2.18.33,4.65.99,7.41.66,2.76,1.56,5.15,2.7,7.18,1.14,2.03,2.55,3.82,4.22,5.38,1.67,1.56,3.54,2.76,5.62,3.59,2.08.83,4.3,1.24,6.67,1.24Z"/><path class="cls-1" d="M829.47,183.85c3.82-.45,5.98-.76,6.48-.95.34-.13.65-.52.94-1.18v-.43c0-.66.1-3.03.32-7.13.05-1.16.08-2.29.08-3.39l-.12-4.69.08-5.32-.04-9.89.04-7.09c.03-3-.21-4.82-.69-5.48-.49-.66-1.74-1.12-3.77-1.4-2.02-.28-3.14-.48-3.35-.61-.21-.13-.32-.34-.32-.63,0-.18.04-.42.12-.71.26-.24.87-.37,1.81-.39.13,0,.49-.03,1.09-.1.59-.06,1.15-.1,1.67-.1h3.23l10.37-.12c5.86,0,9.97.43,12.32,1.3,2.35.87,4.22,2.33,5.62,4.4,1.39,2.06,2.09,4.37,2.09,6.92,0,4.84-2.54,8.53-7.6,11.08-.87.45-1.55.84-2.05,1.18.89,1.89,2.14,4.16,3.74,6.82l5,8.59c2,3.16,3.38,5.14,4.14,5.94.76.81,1.69,1.47,2.78,2,1.09.53,2.93,1.03,5.5,1.5.03.26.04.47.04.63s-.01.35-.04.59c-3.6.05-7.82.08-12.66.08-.34,0-.82-.02-1.42-.08-1.87-3.58-4.06-7.52-6.58-11.81l-5.84-10.67c-.79-1.1-1.44-1.8-1.95-2.07-.51-.28-1.19-.41-2.03-.41l-3.35.04-1.1-.04c-.08.84-.12,2.56-.12,5.16v13.49c-.03.5.08,1.2.32,2.09.21.5.57.9,1.08,1.2.51.3,1.99.76,4.44,1.36l1.62.39c.21.26.32.62.32,1.07-.71.13-1.21.2-1.5.2-2.36,0-4.03-.03-5-.08-.5-.02-.91-.04-1.22-.04l-5.35.08-5.24-.04c-.23,0-1.43.04-3.58.12l-.79-.16-.08-.39c0-.24.18-.51.55-.83ZM844.1,158.06c.71.03,1.23.04,1.58.04,1.89,0,4.07-.22,6.55-.67,1.73-.34,3.14-.9,4.22-1.67,1.08-.77,1.98-1.92,2.7-3.44.72-1.52,1.08-3.1,1.08-4.72,0-1.79-.56-3.67-1.69-5.67-.87-1.52-2.33-2.79-4.4-3.82-2.06-1.02-4.54-1.54-7.43-1.54-.71,0-1.63.04-2.76.12-.11,1.36-.16,2.41-.16,3.15l.2,7.36-.04,3.03c0,2.05.05,4.66.16,7.83Z"/><path class="cls-1" d="M962.17,159.87c0-2.68.32-5.07.97-7.16.64-2.09,1.73-4.36,3.25-6.8,1.53-2.44,3.37-4.49,5.52-6.13,2.15-1.64,5.14-3.1,8.95-4.36,2.68-.87,6.07-1.3,10.17-1.3,2.76,0,5.46.37,8.1,1.11,2.64.74,5.04,1.76,7.2,3.08,2.15,1.31,4.31,3.34,6.46,6.07,1.5,1.89,2.63,3.93,3.39,6.11,1,2.87,1.5,5.82,1.5,8.87,0,3.47-.34,6.35-1,8.64-.67,2.29-1.79,4.55-3.37,6.78-1.24,1.73-3.35,3.73-6.35,5.99-2,1.53-4.48,2.75-7.45,3.69-2.97.93-6.18,1.4-9.63,1.4s-6.61-.41-9.34-1.22c-2.74-.81-5.02-1.81-6.84-2.98-1.83-1.17-3.71-2.9-5.64-5.19-1.93-2.29-3.4-4.81-4.39-7.57-1-2.76-1.5-5.77-1.5-9.03ZM989.54,184.4c2.21,0,4.5-.31,6.88-.93,2.38-.62,4.49-1.64,6.33-3.08,1.84-1.43,3.28-3.06,4.32-4.89,1.03-1.83,1.87-4.18,2.5-7.04.63-2.87.95-5.73.95-8.6,0-3.58-.53-7.11-1.58-10.61-.81-2.66-2.14-5.03-3.98-7.12-1.84-2.09-4.06-3.71-6.66-4.85-2.6-1.15-5.38-1.72-8.32-1.72-2.39,0-4.74.39-7.02,1.18-2.28.79-4.16,1.79-5.64,3.02-1.47,1.22-2.84,2.96-4.1,5.2-1.26,2.25-2.22,4.73-2.88,7.43-.66,2.71-.98,5.1-.98,7.18,0,2.18.33,4.65.98,7.41.66,2.76,1.56,5.15,2.7,7.18,1.15,2.03,2.55,3.82,4.22,5.38,1.67,1.56,3.54,2.76,5.62,3.59,2.08.83,4.3,1.24,6.67,1.24Z"/><path class="cls-1" d="M1055.62,106.13h0c-6.04,0-10.95-4.91-10.95-10.95s4.91-10.95,10.95-10.95,10.95,4.91,10.95,10.95-4.91,10.95-10.95,10.95M1055.62,82.59c-6.95,0-12.6,5.65-12.6,12.6s5.65,12.6,12.6,12.6,12.6-5.65,12.6-12.6-5.65-12.6-12.6-12.6Z"/><path class="cls-1" d="M1053.22,90.94h0v4.01h3.6c1.5,0,2.15-1,2.15-2.01s-.66-2.01-2.15-2.01h-3.6ZM1061.95,101.27h-2.81l-3.65-4.19h-2.27v4.19h-2.36v-12.55c1.99,0,3.98.02,5.96.02,2.95.02,4.51,1.99,4.51,4.15,0,1.72-.79,3.46-3.17,3.94l3.8,4.28v.16Z"/><path class="cls-1" d="M489.26,254.36l-3.18,8.81h-22.6v-.55h.7c1.91,0,3.46-1.53,3.49-3.43v-30.21c-.04-1.9-1.58-3.43-3.49-3.43h-.69v-.55s11.92,0,11.92,0v.55h-.7c-1.91,0-3.46,1.53-3.49,3.43v32.51h7.82c5.78,0,7.99-2.99,9.68-7.14h.55Z"/><path class="cls-1" d="M543.66,244.09c0,11.9-8,19.84-19.59,19.84s-19.59-7.94-19.59-19.84,8-19.84,19.59-19.84,19.59,7.94,19.59,19.84ZM539.48,244.09c0-10.93-6.17-18.21-15.41-18.21s-15.41,7.28-15.41,18.21,6.17,18.21,15.41,18.21,15.41-7.29,15.41-18.21Z"/><path class="cls-1" d="M577.29,247.09c2.18,2.01,2.74,4.44,2.74,6.65,0,6.03-3.94,10.19-10.21,10.19-2.67,0-7.09-.76-9.23-2.98-.41-1.68-.2-5.15.63-7.6h.48c-.55,5.62,3.01,9.21,7.86,8.94,3.98-.22,7.3-2.95,7.3-7.31,0-2.13-.78-3.82-2.14-5.08l-10.44-9.7c-2.2-2.01-2.95-4.64-2.95-6.75,0-4.59,3.37-9.21,9.58-9.21,1.43,0,3.23.24,4.67.56h2.16v6.69h-.52c.01-3.49-2.74-5.61-6.13-5.61-4.02,0-6.7,2.95-6.7,6.27,0,1.42.48,3.43,2.2,5.03l10.71,9.92Z"/><path class="cls-1" d="M657.28,247.26l-.66,8.56c-2.87,4.7-7.75,8.12-15.32,8.12-11.4-.05-19.47-7.85-19.47-19.9s7.8-19.79,19.79-19.79c5.34,0,9.7,1.58,12.89,3.68l1.1,7.7h-.45c-1.66-6.36-7-9.74-13.55-9.75-9.58,0-15.69,7.25-15.69,18.1s6.21,18.1,15.38,18.32c7.74-.02,14.29-3.88,15.53-15.04h.45Z"/><path class="cls-1" d="M705.05,259.19c1.1,2.43,3.12,3.43,4.79,3.43h.46v.55h-12.27v-.54h.48c1.41,0,2.87-1.24,2.07-3.42l-3.49-9.28h-14.68l-3.65,9.32c-.77,2.16.68,3.39,2.08,3.39h.48v.54h-10.97v-.55h.49c1.66,0,3.67-1,4.77-3.43l12.36-29.33s2.02-4.42,2.02-5.61h.49l14.57,34.94ZM696.47,248.28l-6.57-17.49-6.86,17.49h13.43Z"/><path class="cls-1" d="M734.71,225.01c7.64,0,11.84,3.65,11.86,9.11-.02,4.62-2.96,7.4-6.04,8.28,5.8.86,9.35,5.12,9.34,10.52,0,6.16-4.58,10.24-12.7,10.24h-13.28v-.55h.7c1.9,0,3.44-1.51,3.49-3.39v-30.3c0-1.88-1.6-3.38-3.5-3.38h-.68v-.54s10.81,0,10.81,0ZM736.98,261.18c5.59.03,8.81-3.14,8.81-8.65,0-8.17-7.03-9.53-12.3-9.52v-.51c3.31.01,8.98-.97,9-7.98-.02-4.93-2.8-7.76-7.97-7.76h-2.88v34.42h5.35Z"/><path class="cls-1" d="M806.71,244.09c0,11.9-8,19.84-19.59,19.84s-19.59-7.94-19.59-19.84,8-19.84,19.59-19.84,19.59,7.94,19.59,19.84ZM802.54,244.09c0-10.93-6.17-18.21-15.41-18.21s-15.41,7.28-15.41,18.21,6.17,18.21,15.41,18.21,15.41-7.29,15.41-18.21Z"/><path class="cls-1" d="M840.34,247.09c2.18,2.01,2.74,4.44,2.74,6.65,0,6.03-3.94,10.19-10.21,10.19-2.67,0-7.09-.76-9.23-2.98-.41-1.68-.2-5.15.63-7.6h.48c-.55,5.62,3.01,9.21,7.86,8.94,3.98-.22,7.3-2.95,7.3-7.31,0-2.13-.78-3.82-2.14-5.08l-10.44-9.7c-2.2-2.01-2.95-4.64-2.95-6.75,0-4.59,3.37-9.21,9.58-9.21,1.43,0,3.23.24,4.67.56h2.16v6.69h-.52c.01-3.49-2.74-5.61-6.13-5.61-4.02,0-6.7,2.95-6.7,6.27,0,1.42.48,3.43,2.2,5.03l10.71,9.92Z"/><path class="cls-1" d="M41.61,147.01l3.29-.5-5.04-3.17c-2.34-.84-.12,1.59,1.75,3.68Z"/><path class="cls-1" d="M56.75,150.55c-7.65-4.58-4.22.44-6.14.72l6.85,1.95-4.63-1.87c-3.78-4.03,1.98-1.62,3.93-.8Z"/><path class="cls-1" d="M62.44,157.47c3.33,2.75,3.29.85,2.14-.67-.6.31-3.33-.77-2.14.67Z"/><path class="cls-1" d="M178.79,134.41c.91.74,2.06,1.49,1.71,1.8,1.35.12,1.73-.11-1.71-1.8Z"/><polygon class="cls-1" points="180.5 136.21 179.64 136.11 180.39 136.32 180.5 136.21"/><path class="cls-1" d="M113.75,65.79h0c-2.3.11-1.62.08,0,0Z"/><path class="cls-1" d="M112.52,242.7c.12.09.28.06.45-.02-.15-.02-.28-.04-.43-.06,0,.03-.02.05-.02.08Z"/><path class="cls-1" d="M113.46,242.95c-.83-.05-1.28-.91-2.33.77l-.04.08v.02s-.01,0-.01,0c2.77.38-4.36-.59,2.3.33l.21-.6-.12-.62Z"/><path class="cls-1" d="M204.27,145.5c-.02.1-.02.11,0,0h0Z"/><path class="cls-1" d="M204.27,145.5c.08-.58.58-3.92.15-1.05h0c-.09.6-.13.92-.15,1.05Z"/><path class="cls-1" d="M204.4,144.45h-.04s-.07,0-.07,0h-.13s-.26,0-.26,0l-.48.02-1.53.42c-.71.32-1.36.73-2.28.97,2.67-18.16-.25,1.66.88-6.03h-.06s-.09.01-.09.01l-.39.04-1.56.17-6.58.83c-.45.1-.91.21-1.36.32-1.33-.76-2.73-1.69-4.61-3.3l-.29,1.81c-3.7-2.94-5.23-.8-9.2-3.67-.09-.43,1.78-.13,3.28.08-4.12-1.11-2.74-3-6.54-4.18l3.64-.31c-2.79-1.24-6.73-3.17-4.5-3.78-5.68-.72-11.71-8.07-16.78-12.79l1.52-.55c-3.69-1.94-8.26-11.1-11.83-12.59l.2-.82-5.96-5.05c-1.77-2.93.84-3.25.14-3.12-4.42-6.01-7.47-11.02-9.33-15.47-1.18,0-2.82-1.66-4.58-3.99-.87-1.17-1.78-2.5-2.67-3.89l-.2-.32h0c.24-.02.21-.02,0,0l-1.1-1.76-.63-1.04-.31-.52-.15-.25-.08-.12-.04-.06v-.02s-.02,0-.02,0c.9-.05-4.11.2-6.7.33h0s-.01.04-.01.04c-.51,1.31-1.03,2.62-1.56,3.94-2.93.15-4.33.22-.37.02v.03s.03.06.03.06l.11.23.05.11c-10.69,26.83-24.41,55.13-52.84,61.68-4.08,1.02-9.46,4.29-14.76,5.94,6.64-.44,7.13-1.42,13.51-2.77,4.9-.56,7.23,1.03,11.9.85l-2.67-.91c5.94-3.74,4.9-.53,9.14-4.52l1.01,2.65c1.21-2.02,6.04-3.44,8.23-4l.45-2.66c4.28-1.74,6.8-3.39,9.01-3.13l-1.55-1c2.64.04,11.24-13.28,10.31-7.19.45-1.34.52-2.81,2.24-5.07l1.72.62c1.95-3.76,3.79-7.86,5.22-8.42-.68,2.13-.36,3.18-.04,4.22,8.32-15.16-3.22-5.93,2.82-19.21l.99.62.33-3.85,1.43-1.52c.45.63.92,1.23,1.41,1.75,2.06,2.72,2.39,7.75,6.02,13.15l1.28-1.32c1.19,5.42,11.32,22,11.11,28.33,4.05,3.15-.01-.64,1.19-1.4,6.94,6.48,6.5,9.4,9.35,14.17,5.68,4.05-3.32-4.12.34-2.52,6.82,7.98,7.39,4.44,17.48,11.89.64,1.42-3.23-.81-4.66-1.12,2.27.98,4.89,2.1,7.7,3.27-6.01,3.09-11.62,6.73-16.36,10.37l.19.69c-6.56,3.59-10.68,10.38-16.28,16.24l3.25-2.49c-2.49,4.79-4.79,6.71-7.29,11l-3.09,1.2c-2.48,4.77-.07,2.81-1.31,6.57-3.64,3.4-7.7,12.68-8.83,14.6-1.52.95-.09-2.27-.17-3.19-2.3,5.31-.84,6.13-3.51,11.72-.58-1.43-1.12-2.9-1.77-4.28.37,1.35-.12,1.15-.29,1.78-7.22-20.51-24.15-40.43-39.54-47.22,9.13,6.77,19.2,22.61,27.39,30.93.91,4.31,5.48,9.34,4.33,11.76,2.41,6.51,4.26,11.31,6.12,15.88-.31.84-.62,1.69-.93,2.54l-.71-1.53c.22.65.38,1.32.55,1.98-.31.85-.61,1.67-.92,2.53l-1.58,4.18c-.2-1.62-.95-3-1.29-5.68l-1.23,1.51,2.05,5.43-.59,1.55-1.35,3.56-.34.89-.09.23-.04.11-.02.06h0c6.88.96-11.42-1.55,6.52.92.15-.64.34-1.23.5-1.86l.32,1.65c-.14.13-.27.21-.39.27.15.02.3.04.45.06l.04.21c.11,0,.22,0,.34-.02l-.22.64.12.64c-.12-.02-.22-.03-.33-.04l-.07.21c.17.05.31.09.46.14v.05c.89.64,1.39.66,1.72.42,1.27.28.88-.1.51-.46-.06,0-.1-.01-.16-.02.02-.03.03-.06.04-.1-.21-.21-.33-.39.02-.39l-.22-.97c.16.02.35.05.52.07.12-.6.26-1.17.61-1.4.24-.6.47-1.18.71-1.77l.44,2.24.21,1.2c1.7.24,3.58.49,5.69.78v-.03s-.1-.48-.1-.48l-.37-1.95c-.6-3.68-1.4-7.38-2.3-11.06.74-2.11,1.39-4.12,1.76-5.9-.78,1.25-1.49,2.69-2.19,4.19-.45-1.75-.94-3.48-1.47-5.2,3.03-6.6,6.54-13.02,10.22-20.28,1.78-3.46,4.76-7.85,5.81-7.92-1.07,2.33.55,1.09-.18,3.09,2.26-5.04-2.52-2.24,2.28-8.67l1.98,2.59c-.96-4.52,6.02-7.57,8.13-13.1,2.3-.73.3,2.5-2.15,6.02,3.35-3.57,2.32-4.98,4.92-7.97l-.4,4.52c.78-4.76,5.17-5.36,7.44-6.32-.26-.66-3.26-.48.52-4.1,1.81-1.35,1.46-.05,2.09-.16-.3-.71.34-2.78,2.92-5.14,1.05.26-.87,2.52-.42,3.33,1.92-1.69,3.33-3.29,5.27-3.81,3.22-3.24-1.02-.83.67-3.24,6.08-3.63,2.34,2.09,5.46,2.14-3.48,3.83-8,8.35-9.5,10.64,2.25-2.2,4.37-4.66,6.8-6.66.2,1.14,6.14-2.25,2.79,1.42,6.56-3.97,14.07-8.43,21.31-11.1l1.64.87.55.28.14.07h.02c.11-.73.21-1.41.31-2.11.47-.14.95-.31,1.42-.44-.44-.05-.9-.07-1.33-.11.05-.35.11-.73.16-1.07,2.71-.6,2.66.46,3.51.95l1.02-.52h0c1.07-7.27,1.6-10.89,1.84-12.51h-.02ZM113.93,237.42l.24,4.09c-.07.09-.13.16-.2.24-.2-.66-.4-1.43-.6-2.25.19-.69.35-1.4.56-2.07ZM116.3,234.85l.62,2.57c-.14.31-.27.62-.42.93-.47.59-.97,1.31-1.46,2l-.87-3.66c.43-1.39.88-2.75,1.36-4.09.25.75.5,1.47.76,2.26Z"/><path class="cls-1" d="M115.87,244.4s.08.08.12.12c.72.1,1.52.21,2.42.33v-.05s-.04-.18-.04-.18l-.06-.36-.12-.71-.03-.17c-.7-.09-1.34-.18-1.98-.27-.09.46-.18.91-.32,1.29Z"/><path class="cls-1" d="M143.62,195.57c2.28-4.12,4.89-8.03,7.54-11.95l-.77.53c-2.34,3.79-4.73,7.49-6.77,11.42Z"/><path class="cls-1" d="M184.79,134.23l-5.6-1.59.67.55c1.64-.17,3.32.97,4.93,1.03Z"/><path class="cls-1" d="M146.92,89.98c-3.58-.38-2.54-3.78-2.92.1,2.42,2.74,1.56-.45,2.92-.1Z"/><path class="cls-1" d="M139.21,84.04c-.4-2.97-1.64-2.31-2.92-3.34,1.02,1.81,1.97,2.59,2.92,3.34Z"/><path class="cls-1" d="M79.23,148.63l2.18-1.22-2.35-1.44c-1.25-.14-.46,1.37.17,2.66Z"/><path class="cls-1" d="M87.95,147.8c-3.77-1.85-2.82,1.43-4.12,2.14l3.91-.12-2.51-.38c-1.42-2.36,1.67-1.83,2.72-1.64Z"/><path class="cls-1" d="M89.87,152.06c1.51,1.34,1.99-.19,1.59-1.09-.5.43-1.98.2-1.59,1.09Z"/><path class="cls-1" d="M105.41,189.47h0c-.35-.05-.39-.05,0,0Z"/><path class="cls-1" d="M110.49,191.54l-.02.04h0s0,.01,0,.01c.87.12,1.65.23,2.35.32-.04-.1-.08-.21-.12-.33-.88-.12-1.5-.84-2.21-.05Z"/><path class="cls-1" d="M118.47,108.57h0c1.62-.08,2.3-.11,0,0Z"/><path class="cls-1" d="M155.5,154.39c-.7,4.75-.08.53,0,0h0Z"/><path class="cls-1" d="M115.33,191.53s-.02.02-.03.03c.1.34.08.58-.18.67,4.35.6,3.53.48,2.69.37v-.02l-.02-.09-.03-.17-.07-.34-.15-.65-.06-.21c-.63-.09-1.26-.17-1.89-.26-.09.22-.16.45-.25.67Z"/><path class="cls-1" d="M113.31,190.55s-.07,0-.1-.01c0,.03.02.05.03.07.02-.02.05-.04.07-.06Z"/><path class="cls-1" d="M157.18,142.95h0l-.57.2-.93.67c-.56.53-1.08,1.16-1.83,1.56-.55-.55-1.01-.94-1.43-1.27.62-4.22,1.04-7.11.85-5.79h-.07s-.21.02-.21.02l-.84.08-3.58.43c-.75.12-1.53.24-2.32.36-.1-.19-.37-.43-.98-.77.2.31.44.59.54.84-.42.07-.84.14-1.26.23-.79-.58-.32-1.8-1.75-1.9l2.05-1.16c-1.14-.46-2.87-.89-1.44-2-2.84.82-4.95-2.49-7.62-4.06l1.36-.76c-2.49-.27-3.71-5.08-6.33-5.04l.37-.57-3.66-1.67c-.73-1.4,1.52-2.24.91-1.99-2.2-2.61-3.65-4.86-4.12-7.1-1.02.29-2.08-.29-3.08-1.23l-1.45-1.64-.67-.91-.32-.46-.16-.23-.07-.11-.04-.06-.02-.03v-.02s-.01,0-.01,0c-2.59.13-7.59.38-6.7.33h0c-.63,1.33-1.23,2.66-1.83,3.98-2.01.1-.93.05,0,0h0s-.08,0-.12,0h0s0,.02,0,.02v.03s.05.09.05.09c-5.17,11.5-9.7,22.64-21.73,26.99-1.88.4-4.15,3.13-6.62,4.56,3.2-.02,3.35-1.1,6.37-1.63,2.39.09,3.8,1.7,6.39,2.32l-1.63-1.31c2.68-2.46,2.63.36,4.35-2.57l1.11,2.6c.28-1.78,3.02-1.91,4.4-1.85l-.3-2.14c2.39-.57,3.88-1.24,5.67-.45l-1.4-1.16c1.85.46,5.62-6.93,6.38-2.84.09-.81-.14-1.84.79-2.93l1.6.8c.68-2,1.51-4.07,2.64-4.23.03.1.06.2.09.31-.05.82.22,1.43.57,1.99.97,3.33,1.94,7.07.9,9.54,2.52,1.08.15-.42,1.31-1.23,4.01,2.41,3.08,5.26,4.21,8.05,3.41,1.96-1.6-2.49.84-2.03.5.72.94,1.25,1.37,1.67-.02.01-.04.02-.06.04l.3.59c-3.98,1.32-5.5,5.42-8.77,8.13l2.03-.98c-.91,2.78-2.16,3.55-3.28,5.83l-2.34.06c-1.04,2.56.55,1.85.36,3.98-.99.62-1.85,1.94-2.56,3.29-4.43-6.65-10.59-12.05-16.88-13,4.66,2.96,7.8,11.49,13.36,14.34-.1.81.18,1.56.54,2.26,0,1.62.75,2.59-.52,5.06l-.48-.18c-.38,2.24-1.02,4.48-1.62,6.76l-1.06,3.42-.58,1.73-.15.43-.04.11-.02.05v.03s-.01,0-.01,0c.79.11,3.26.45,6.27.86.07-.74.16-1.47.28-2.16.19.69.32,1.51.46,2.27.26.03.52.07.79.11-.36-1-.64-2.2-1.11-2.99.17-.81.38-1.6.62-2.37.1.42.19.85.29,1.27l.4-1.18-.5-.67c.23-.69.49-1.38.76-2.05.3.51.6,1.02.94,1.51.4.77.78,1.55,1.16,2.37-.41,1.06-.81,2.18-1.35,3.19-.02.02-.05.04-.07.06-.19-.34-.34-.66-.42-.92l-.04,1.31c-.19.17-.38.32-.57.48.18.02.37.05.55.08l-.04,1.14c-.24-.29-.42-.7-.58-1.16-.23.2-.46.34-.68.47.04.18.09.35.14.51.04,0,.07.02.1.02.49.22.87.36,1.21.47-.38-.05-.74-.1-1.19-.17.31.71.82.97,1.73.31.25.05.44.05.57,0-.16-.02-.31-.04-.48-.07.2-.15.42-.35.66-.6-.07-.23-.2-.5-.35-.79.21.03.42.06.64.09.35-.9.66-1.8.93-2.68l.68,1.91.28,1.03c7.55,1.04,14.28,1.96,5.78.79h0s-.06-.25-.06-.25l-.23-.96c-1.11-5.11-2.56-10.37-5.13-14.94.12.69-.31.66-.58,1.04-.12-.31-.26-.63-.39-.95.58-1.16,1.17-2.34,1.74-3.6.77-1.7,2.18-3.79,3.07-3.57-.35,1.2.73.81.59,1.89.7-2.61-2.68-1.99-.14-4.94l2.27,2.15c-1.75-3.08,3.05-3.43,3.29-6.66,1.62.09.87,1.81-.17,3.54,1.73-1.55.55-2.78,1.86-4.16l.83,3c-.61-3.07,2.73-2.25,4.03-2.41-.37-.55-2.52-1.18-.74-2.89.95-.54,1.05.35,1.47.43-.4-.6-.5-2,.76-3.11.8.5.01,1.69.55,2.42.89-.77,1.55-1.53,2.67-1.48,1.2-1.9-.89-.93-.43-2.52.09-.05.15-.05.24-.09.73.29,1.46.57,2.18.87.36.86.64,1.95,1.59,2.34-1.03,2.46-2.93,4.45-3.34,5.67l2.74-3.09c.46.96,3.13-.25,2.12,1.86,1.96-.84,3.81-2.01,5.64-3.15l.29.2.23.15.06.04h.02c-1.09,7.43-.69,4.72.12-.82,1.21-.74,2.42-1.45,3.65-2-.54-.22-1.22-.28-1.27-.93,1.73-1.08,1.75.24,2.2.89l.2-.21.09-.11.04-.05.02-.03v-.02s.01,0,.01,0c.15-1.04.19-1.26.16-1.09.29-1.97.8-5.47,1.68-11.44Z"/><path class="cls-1" d="M113.92,188.76l.02-.54c-.1.12-.09.3-.02.54Z"/><path class="cls-1" d="M111.68,190.33c-.03.31-.08.59-.1.91.29.17.63.05.98-.16-.05-.21-.1-.42-.14-.65-.25-.03-.5-.07-.74-.1Z"/><polygon class="cls-1" points="128.7 170.79 131.67 164.95 131.2 165.1 128.7 170.79"/><path class="cls-1" d="M148.4,137.04l-2.54-.27.23.36c.89-.49,1.49.16,2.31-.09Z"/><path class="cls-1" d="M135.27,116.7c-2.86.67-1.12-1.69-2.44.8,1.3,1.09,1.42-.67,2.44-.8Z"/><path class="cls-1" d="M130.32,115.05c.4-1.68-.82-.98-1.65-1.28.42.84,1.04,1.06,1.65,1.28Z"/><path class="cls-1" d="M11.09,146.72l4.19.09-7.22-4.61c-3.24-1.42.16,1.77,3.02,4.52Z"/><path class="cls-1" d="M31.53,153.83c-10.85-6.79-5.38-.36-7.81-.44l9.27,3.64-6.38-3.1c-5.74-5.37,2.24-1.43,4.92-.1Z"/><path class="cls-1" d="M40.28,162.98c4.84,3.91,4.37,1.68,2.59-.33-.7.23-4.43-1.58-2.59.33Z"/><path class="cls-1" d="M206.76,132.12c1.4.96,3.11,1.95,2.7,2.22,1.89.36,2.39.17-2.7-2.22Z"/><polygon class="cls-1" points="209.46 134.34 208.25 134.09 209.33 134.45 209.46 134.34"/><path class="cls-1" d="M114.37,286.73c-.51-.07-1.02-.14-1.52-.21-.22.25-.48.59-.79,1.14l-.05.12v.03s-.02.01-.02.01c-3.47-.47-.77-.1,2.31.33l.22-.58-.15-.84Z"/><path class="cls-1" d="M243.68,146.7h-.06s-.1-.02-.1-.02l-.19-.03-.35-.04-.66-.04c-.81-.02-1.43.08-2,.22-.44.11-.86.24-1.3.37.23-1.57.48-3.23.75-5.08h-.1s-.13.03-.13.03l-.52.06-2.14.28c-2.53.34-5.16.71-7.86,1.11-4.06-1.94-6.66-2.92-11.86-6.56l-.12,1.87c-5.58-3.66-7.37-1.67-13.32-5.41-.2-.47,2.43.16,4.54.63-5.9-1.86-4.33-3.77-9.8-5.82l4.96.41c-4.15-1.89-9.9-5.04-7.02-5.24-7.99-1.97-17.25-12.66-24.29-19.98l1.65-.38c-4.67-3.31-12-16.05-16.33-18.78l.06-1.03-7.84-7.83c-2.63-4.19.27-4.09-.5-4.06-6.25-8.81-10.62-16.07-13.62-22.33-1.31-.24-3.43-2.78-5.8-6.26-1.19-1.74-2.43-3.71-3.66-5.73l-1.27-2.13.03-.07v-.02s.01-.01.01-.01c-.04,0-.06,0-.1,0l-.5-.84-.89-1.52-.44-.75-.22-.37-.11-.19-.05-.09-.02-.02h0c-2.99.13,6.68-.35-6.7.31h0s-.02.06-.02.06c-.55,1.3-1.1,2.61-1.65,3.92-2.33.12-.98.05,0,0t0,0c-.08,0-.17,0-.27.01l.02.04.04.08.09.17c-7.93,18.89-15.6,38.58-27.14,55.22-12.04,18.26-31.44,29.7-51.09,35.34-5.9,1.43-13.83,5.16-21.46,7.08,9.48-.85,10.24-1.81,19.38-3.74,6.96-1.03,10.05.35,16.45-.41l-3.56-.6c8.62-4.74,6.8-1.11,13.08-6.08l.91,2.7c1.97-2.31,8.51-4.73,11.4-5.75l1.06-3.07c5.74-2.79,9.14-5.23,11.72-5.36l-1.67-.88c3.34-.22,15.75-18.51,13.5-10.74.74-1.77,1.14-3.59,3.49-6.81l1.81.47c2.86-5.13,5.59-10.85,7.23-11.84-1.11,2.92-.93,4.23-.76,5.53,11.56-21.33-2.44-7.19,6.21-26.06l.97.69.95-5.28,3.43-4.49c-.11-1.04-.01-2.23.24-3.53,1.65,3.07,3.35,5.9,5.15,8.11,2.82,3.97,4.18,10.64,9.27,18.42l1.19-1.48c2.37,7.33,17.28,30.79,18.39,38.76,5.3,4.85-.15-.83,1.09-1.55,9.34,9.84,9.3,12.8,13.57,19.2,7.55,5.77-4.71-5.46-.07-2.93,9.7,10.57,9.62,6.75,23.82,16.67,1.06,1.63-4.35-1.37-6.16-1.99,5.48,2.74,12.88,5.93,20.69,9.13-11.81,5.06-22.96,12.13-31.81,19.33l.09.77c-8.66,5.44-14.83,14.47-22.45,22.9l4.25-3.73c-3.85,6.44-6.87,9.33-10.53,15.25l-3.73,2.13c-3.7,6.59-.64,3.6-2.73,8.7-4.74,5.07-10.88,18.01-12.46,20.75-1.85,1.53.31-2.98.39-4.18-3.71,7.9-1.7,8.24-6.63,17.73l-.53-.07c-.89,2.45-1.88,4.96-2.87,7.49-1.69-5.56-3.64-10.98-5.9-16.12.56,1.89.03,1.56-.07,2.4-9.98-29.12-33.72-57.18-54.56-68.43,12.9,9.8,28.43,31.84,38.95,44.53,1.81,5.9,7.6,13.44,6.7,16.59,4.2,10.8,6.87,18.46,9.69,26.08.49,1.5.96,3.01,1.43,4.53-.24.61-.47,1.19-.71,1.8l-1.56,3.93c-.6-2.12-1.26-3.72-1.98-4.02.55,1.55,1.09,3.24,1.59,5l-1.99,5.03-2,5.06-.51,1.27-.13.31-.06.16-.03.08v.02c-8.56-1.17-1.7-.23,5.91.82.61-.67.97-.45,1.43-.33l.1.54c.15.02.29.04.44.06l-.29.78.11.6s.03.02.04.03c-.12-.02-.24-.03-.36-.05l-.02.06c.27.1.49.18.71.27.56.45.99.57,1.31.43,1.09.29,1.05.02.79-.37-.11-.02-.23-.03-.34-.05.05-.07.09-.15.13-.23-.28-.37-.55-.73-.15-.76l-.09-.45c.22.03.43.06.65.09.32-1.2.55-2.63,1.17-3.11.02-.04.03-.08.05-.12l.2,1.11.33,1.97.07.39c4.02.55,6.9.95,5.68.78v-.04s-.13-.69-.13-.69l-.49-2.77c-.52-3.36-1.12-6.73-1.81-10.1,2.23-5.45,4.22-10.51,5.44-14.69-2.08,3.55-3.98,7.91-5.92,12.39-.39-1.83-.81-3.65-1.26-5.47,5.15-12.23,11.31-23.56,18.2-36.63,2.62-4.9,6.82-11.21,8.02-11.51-1.66,3.26.41,1.32-.8,4.08,3.52-7.04-2.44-2.47,4.29-11.73l1.73,2.95c-.22-5.66,8.43-10.99,12.09-18.39,2.88-1.39-.21,3.03-3.78,8.06,4.62-5.28,3.75-6.8,7.45-11.07l-1.44,5.74c1.95-6.13,7.25-7.84,10.27-9.5-.17-.74-3.84.12,1.53-5.11,2.49-2.05,1.8-.39,2.58-.66-.22-.81,1.03-3.41,4.75-6.75,1.26.08-1.62,3.17-1.25,4.04,2.78-2.42,4.85-4.66,7.46-5.66,4.83-4.41-1.13-.76,1.56-3.89,8.55-5.43,2.57,1.91,6.61,1.29-5.41,5.11-12.15,11.6-14.57,14.72,3.38-3.15,6.55-6.65,10.18-9.52-.01,1.3,8.57-4.01,3.32,1.03,10.43-6.81,23.2-13.85,35.03-17.21l1.88.92.81.39.2.1h.02c1.08-7.3-1.49,10.22.54-3.63,1.9-.09,2.04.63,2.99.96l1.54-.61h0s0-.01,0-.01c3.68-24.99,1.02-6.92,1.84-12.51ZM114.75,282.73c.06.81.12,1.61.2,2.42,0,0,0,.01-.01.02-.14-.48-.28-1.04-.43-1.65.08-.26.17-.53.25-.79ZM113.71,286.04c.11-.37.23-.72.35-1.09l.17.96c-.21.16-.4.24-.52.13ZM117.89,280.64c-.64,1.02-1.31,2.12-1.93,3.07l-.11-.55c-.17-.79-.32-1.58-.48-2.37.51-1.56,1.04-3.1,1.58-4.62.33,1.43.64,2.91.95,4.46Z"/><path class="cls-1" d="M116.88,288.25c.07.09.14.19.21.28,1.6.22,2.73.37,2.24.3v-.06s-.05-.26-.05-.26l-.07-.51-.1-.63c-.58-.08-1.19-.16-1.81-.25-.11.42-.24.81-.4,1.12Z"/><path class="cls-1" d="M107.13,264.48l-1.12,2.03,3.06,9.45c.37-4.17-1.1-6-1.94-11.47Z"/><path class="cls-1" d="M112.1,265.51l-1.98-4.97c.88,2.72,1.43,5.52,2.07,8.3l-.09-3.33Z"/><path class="cls-1" d="M156.32,217.01c3.44-5.87,7.33-11.44,11.28-16.99l-1.03.83c-3.53,5.35-7.13,10.59-10.25,16.16Z"/><path class="cls-1" d="M215.1,132.95l-8.11-2.68,1.03.72c2.27.1,4.82,1.64,7.07,1.96Z"/><path class="cls-1" d="M156.9,69.05c-4.16-1.24-3.7-5.49-3.29-.46,3.34,4.09,1.68-.28,3.29.46Z"/><path class="cls-1" d="M142.98,54.57c1.51,2.62,2.74,3.83,3.96,5.02-1.05-4.04-2.32-3.4-3.96-5.02Z"/></svg>