<?xml version="1.0" encoding="utf-8"?>
<!-- Generator: Adobe Illustrator 27.3.0, SVG Export Plug-In . SVG Version: 6.00 Build 0)  -->
<svg version="1.1" id="Capa_1" xmlns="http://www.w3.org/2000/svg" xmlns:xlink="http://www.w3.org/1999/xlink" x="0px" y="0px"
	 viewBox="0 0 216.9 41" style="enable-background:new 0 0 216.9 41;" xml:space="preserve">
<style type="text/css">
	.st0{fill:#FFFFFF;}
	.st1{fill-rule:evenodd;clip-rule:evenodd;fill:#FFFFFF;}
</style>
<g>
	<g>
		<path class="st0" d="M12.2,0C5,0,0.1,3.5,0.1,7.3c0,3.7,4.8,7.3,12.2,7.3c4.2,0,5.9-0.5,7.2-0.8v-3l-3.9,1.9
			c-0.9,0.5-1.9,0.7-3.3,0.7C7,13.4,5.4,10,5.4,7.3c0-2.8,1.4-6.1,6.8-6.1c1.4,0,2.4,0.2,3.3,0.7l3.9,1.9V0.8
			C18.2,0.5,16.7,0,12.2,0L12.2,0z"/>
	</g>
	<g>
		<polygon class="st0" points="37.3,11.6 34,13.2 27.3,13.2 27.3,1.4 29.7,0.2 20.5,0.2 22.9,1.4 22.9,13.1 20.5,14.4 37.3,14.4 
			37.3,11.6 		"/>
	</g>
	<g>
		<path class="st0" d="M39.8,10.6c0,2.4,4.5,4.1,9.4,4.1c4.8,0,9.4-1.7,9.4-4.1V1.4L61,0.2h-7.6l2.4,1.2v9.1c0,1.6-2.7,2.8-5.8,2.8
			c-3.2,0-5.8-1.2-5.8-2.8V1.4l2.4-1.2h-9.2l2.4,1.2V10.6L39.8,10.6z"/>
	</g>
	<g>
		<path class="st0" d="M61.9,14.4h10.6c4.7,0,9.8-0.9,9.8-3.7c0-1.7-2.8-3.4-6.4-3.6c2.8-0.5,4.9-1.8,4.9-3c0-2.9-4.7-3.9-9.4-3.9
			h-9.6l2.4,1.2v11.7L61.9,14.4L61.9,14.4z M68.6,1.3h2.8c2.8,0,4.8,1.3,4.8,2.7c0,1.4-2.1,2.6-4.8,2.6h-2.8V1.3L68.6,1.3z
			 M72.5,13.2h-3.8V7.8h3.8c3,0,5.2,1.3,5.2,2.8C77.7,12.2,75.3,13.2,72.5,13.2L72.5,13.2z"/>
	</g>
	<g>
		<path class="st0" d="M112,13.1l-6.3-5.7c3.1-0.5,5.3-1.9,5.3-3.4c0-2.4-5-3.9-9.8-3.9h-9.6l2.4,1.2v11.7l-2.4,1.2h9.2l-2.4-1.2
			V7.8h3.2l6.7,6.5h6.1L112,13.1L112,13.1z M98.4,1.3h2.8c2.8,0,4.8,1.3,4.8,2.7c0,1.4-2.1,2.6-4.8,2.6h-2.8V1.3L98.4,1.3z"/>
	</g>
	<g>
		<polygon class="st0" points="131.3,14.4 131.3,11.6 128,13.2 120.3,13.2 120.3,7.3 125.9,7.3 128.3,8.6 128.3,5 125.9,6.2 
			120.3,6.2 120.3,1.3 128,1.3 131.3,3 131.3,0.2 113.5,0.2 116,1.4 116,13.1 113.5,14.4 131.3,14.4 		"/>
	</g>
	<g>
		<path class="st0" d="M148,6.7l2.4,1.2v4.8c-0.4,0.1-1.4,0.7-4,0.7c-5.4,0-8.6-3.2-8.6-6.1c0-3,3.2-6.1,8.6-6.1
			c1.3,0,2.3,0.2,3.2,0.7l3.9,1.9v-3c-1.8-0.5-3.8-0.8-7.1-0.8c-7.7,0-14,3.3-14,7.3c0,3.9,6.3,7.3,14,7.3c5.4,0,6.4-0.5,8.3-1V7.9
			l2.4-1.2H148L148,6.7z"/>
	</g>
	<g>
		<polygon class="st0" points="158.1,0.2 160.5,1.4 160.5,13.1 158.1,14.4 167.3,14.4 164.9,13.1 164.9,1.4 167.3,0.2 158.1,0.2 		
			"/>
	</g>
	<g>
		<polygon class="st0" points="173.9,13.1 173.9,3 190.4,15.7 190.4,1.4 192.8,0.2 185.2,0.2 187.6,1.4 187.6,9.5 175.9,0.2 
			168.8,0.2 171.2,1.4 171.2,13.1 168.8,14.4 176.4,14.4 173.9,13.1 		"/>
	</g>
	<g>
		<path class="st0" d="M196.7,13.2l1.9-2.8h9.3l1.8,2.8l-2.4,1.2h9.6l-2.5-1.2l-8.8-12.9H203l-9,12.9l-2.5,1.2h7.6L196.7,13.2
			L196.7,13.2z M203.3,3.5l3.8,5.7h-7.7L203.3,3.5L203.3,3.5z"/>
	</g>
	<g>
		<polygon class="st0" points="63.9,27.3 61.8,28.4 57.6,28.4 57.6,20.9 59.1,20.1 53.3,20.1 54.8,20.9 54.8,28.3 53.3,29.1 
			63.9,29.1 63.9,27.3 		"/>
	</g>
	<g>
		<path class="st0" d="M64.1,24.6c0,2.3,3,4.7,7.7,4.7c4.7,0,7.7-2.3,7.7-4.7c0-2.3-3-4.7-7.7-4.7C67.1,19.9,64.1,22.3,64.1,24.6
			L64.1,24.6z M67.5,24.6c0-1.8,0.9-3.9,4.3-3.9c3.4,0,4.3,2.2,4.3,3.9c0,1.8-0.9,3.9-4.3,3.9C68.4,28.6,67.5,26.4,67.5,24.6
			L67.5,24.6z"/>
	</g>
	<g>
		<path class="st0" d="M90.6,26.4c0-1-1.2-1.6-1.7-1.7l-4.3-1.3c-1.4-0.4-1.8-0.9-1.8-1.3c0-0.6,1-1.2,2.7-1.2c0.6,0,0.7,0,1.2,0.1
			l1.8,1.1l1.8-1.5l-3.6-0.3c-0.5,0-0.6-0.1-1.4-0.1c-2.4,0-5.1,0.8-5.1,2.4c0,0.8,0.9,1.7,2.4,2.1l4.3,1.3c0.9,0.3,1.2,0.7,1.2,1.1
			c0,0.6-0.7,1.6-3.1,1.6c-0.6,0-0.9,0-1.5-0.2l-2-1.2l-1.8,1.6l3.7,0.3c0.4,0,0.8,0.1,1.3,0.1C88.9,29.2,90.6,27.8,90.6,26.4
			L90.6,26.4z"/>
	</g>
	<g>
		<path class="st0" d="M104.1,20c-4.6,0-7.7,2.2-7.7,4.6c0,2.3,3.1,4.6,7.7,4.6c2.7,0,3.7-0.3,4.5-0.5v-1.9l-2.4,1.2
			c-0.6,0.3-1.2,0.4-2.1,0.4c-3.3,0-4.3-2.1-4.3-3.9c0-1.7,0.9-3.9,4.3-3.9c0.9,0,1.5,0.1,2.1,0.4l2.4,1.2v-1.9
			C107.9,20.3,106.9,20,104.1,20L104.1,20z"/>
	</g>
	<g>
		<path class="st0" d="M111.2,28.3l1.2-1.8h5.9l1.2,1.8l-1.5,0.8h6.1l-1.6-0.8l-5.6-8.2h-1.7l-5.7,8.2l-1.6,0.8h4.8L111.2,28.3
			L111.2,28.3z M115.4,22.2l2.4,3.6h-4.9L115.4,22.2L115.4,22.2z"/>
	</g>
	<g>
		<path class="st0" d="M123.5,29.1h6.7c3,0,6.2-0.6,6.2-2.3c0-1.1-1.7-2.1-4-2.3c1.8-0.3,3.1-1.2,3.1-1.9c0-1.8-3-2.5-5.9-2.5h-6.1
			l1.5,0.8v7.4L123.5,29.1L123.5,29.1z M127.8,20.9h1.8c1.8,0,3.1,0.8,3.1,1.7c0,0.9-1.3,1.7-3.1,1.7h-1.8V20.9L127.8,20.9z
			 M130.2,28.4h-2.4V25h2.4c1.9,0,3.3,0.8,3.3,1.8C133.5,27.8,132,28.4,130.2,28.4L130.2,28.4z"/>
	</g>
	<g>
		<path class="st0" d="M137.1,24.6c0,2.3,3,4.7,7.7,4.7c4.7,0,7.7-2.3,7.7-4.7c0-2.3-3-4.7-7.7-4.7
			C140.1,19.9,137.1,22.3,137.1,24.6L137.1,24.6z M140.5,24.6c0-1.8,0.9-3.9,4.3-3.9c3.4,0,4.3,2.2,4.3,3.9c0,1.8-0.9,3.9-4.3,3.9
			C141.4,28.6,140.5,26.4,140.5,24.6L140.5,24.6z"/>
	</g>
	<g>
		<path class="st0" d="M163.6,26.4c0-1-1.2-1.6-1.7-1.7l-4.3-1.3c-1.4-0.4-1.8-0.9-1.8-1.3c0-0.6,1-1.2,2.7-1.2c0.6,0,0.7,0,1.2,0.1
			l1.8,1.1l1.8-1.5l-3.6-0.3c-0.5,0-0.6-0.1-1.4-0.1c-2.4,0-5.1,0.8-5.1,2.4c0,0.8,0.9,1.7,2.4,2.1l4.3,1.3c0.9,0.3,1.2,0.7,1.2,1.1
			c0,0.6-0.7,1.6-3.1,1.6c-0.6,0-0.9,0-1.5-0.2l-2-1.2l-1.8,1.6l3.7,0.3c0.4,0,0.8,0.1,1.3,0.1C161.9,29.2,163.6,27.8,163.6,26.4
			L163.6,26.4z"/>
	</g>
	<g>
		<path class="st1" d="M10.6,40.2l0.7,0.4H9l0.8-0.4l2.8-4h0.8l2.7,4l0.8,0.4h-3l0.7-0.4L14,39.3h-2.9L10.6,40.2L10.6,40.2z
			 M12.6,37.2L11.4,39h2.4L12.6,37.2L12.6,37.2z"/>
	</g>
	<g>
		<path class="st1" d="M26.5,40.2l0.7,0.4h-1.9l-2.1-2h-1v1.6l0.8,0.4h-2.8l0.8-0.4v-3.6l-0.8-0.4h3c0.8,0,1.5,0.1,2.1,0.3
			c0.6,0.2,0.9,0.5,0.9,0.9c0,0.2-0.2,0.4-0.5,0.6c-0.3,0.2-0.7,0.3-1.2,0.4L26.5,40.2L26.5,40.2z M22.3,36.6v1.6h0.9
			c0.4,0,0.8-0.1,1.1-0.2c0.3-0.2,0.4-0.4,0.4-0.6c0-0.2-0.1-0.4-0.4-0.6c-0.3-0.2-0.6-0.3-1.1-0.3H22.3L22.3,36.6z"/>
	</g>
	<g>
		<path class="st1" d="M28.4,40.2l0.7,0.4h-2.3l0.8-0.4l2.8-4h0.8l2.7,4l0.8,0.4h-3l0.7-0.4l-0.6-0.9H29L28.4,40.2L28.4,40.2z
			 M30.4,37.2L29.2,39h2.4L30.4,37.2L30.4,37.2z"/>
	</g>
	<g>
		<polygon class="st0" points="35,36.2 37.8,36.2 37.1,36.6 37.1,40.2 37.8,40.6 35,40.6 35.8,40.2 35.8,36.6 35,36.2 		"/>
	</g>
	<g>
		<polygon class="st0" points="40.4,40.2 41.2,40.6 38.8,40.6 39.6,40.2 39.6,36.6 38.8,36.2 41,36.2 44.6,39.1 44.6,36.6 
			43.9,36.2 46.2,36.2 45.5,36.6 45.5,41 40.4,37.1 40.4,40.2 		"/>
	</g>
	<g>
		<polygon class="st0" points="50.7,40.2 51.4,40.6 48.6,40.6 49.4,40.2 49.4,36.6 47.9,36.6 46.9,37.1 46.9,36.2 53.1,36.2 
			53.1,37.1 52.1,36.6 50.7,36.6 50.7,40.2 		"/>
	</g>
	<g>
		<path class="st1" d="M60.1,40.2l0.7,0.4H59l-2.1-2h-1v1.6l0.8,0.4h-2.8l0.8-0.4v-3.6l-0.8-0.4h3c0.8,0,1.5,0.1,2.1,0.3
			c0.6,0.2,0.9,0.5,0.9,0.9c0,0.2-0.2,0.4-0.5,0.6c-0.3,0.2-0.7,0.3-1.2,0.4L60.1,40.2L60.1,40.2z M56,36.6v1.6h0.9
			c0.4,0,0.8-0.1,1.1-0.2c0.3-0.2,0.4-0.4,0.4-0.6c0-0.2-0.1-0.4-0.4-0.6c-0.3-0.2-0.6-0.3-1.1-0.3H56L56,36.6z"/>
	</g>
	<g>
		<polygon class="st0" points="66.6,40.6 61.1,40.6 61.9,40.2 61.9,36.6 61.1,36.2 66.6,36.2 66.6,37.1 65.6,36.6 63.2,36.6 
			63.2,38.1 64.9,38.1 65.7,37.7 65.7,38.8 64.9,38.4 63.2,38.4 63.2,40.2 65.6,40.2 66.6,39.7 66.6,40.6 		"/>
	</g>
	<g>
		<polygon class="st0" points="72.9,40.6 67.5,40.6 68.2,40.2 68.2,36.6 67.5,36.2 72.9,36.2 72.9,37.1 71.9,36.6 69.5,36.6 
			69.5,38.1 71.3,38.1 72,37.7 72,38.8 71.3,38.4 69.5,38.4 69.5,40.2 71.9,40.2 72.9,39.7 72.9,40.6 		"/>
	</g>
	<g>
		<polygon class="st0" points="79.3,36.2 78.5,36.6 80.3,39.5 82,36.6 81.3,36.2 83.6,36.2 82.9,36.6 80.4,40.6 79.5,40.6 
			77.1,36.6 76.3,36.2 79.3,36.2 		"/>
	</g>
	<g>
		<path class="st1" d="M84.8,40.2l0.7,0.4h-2.3l0.8-0.4l2.8-4h0.8l2.7,4l0.8,0.4h-3l0.7-0.4l-0.6-0.9h-2.9L84.8,40.2L84.8,40.2z
			 M86.8,37.2L85.6,39h2.4L86.8,37.2L86.8,37.2z"/>
	</g>
	<g>
		<path class="st0" d="M95,36.2c0.9,0,1.6,0.1,2.2,0.3v0.9L96,36.7c-0.3-0.1-0.6-0.2-1-0.2c-0.8,0-1.3,0.2-1.7,0.6
			c-0.3,0.3-0.4,0.8-0.4,1.3c0,0.5,0.2,0.9,0.5,1.3c0.4,0.4,0.9,0.6,1.7,0.6c0.4,0,0.7-0.1,1-0.2l1.2-0.6v0.9
			c-0.6,0.2-1.3,0.3-2.2,0.3c-1.1,0-2-0.2-2.7-0.7c-0.7-0.4-1-0.9-1-1.5c0-0.6,0.3-1.1,1-1.6C93,36.4,93.9,36.2,95,36.2L95,36.2z"/>
	</g>
	<g>
		<path class="st1" d="M99,40.2l0.7,0.4h-2.3l0.8-0.4l2.8-4h0.8l2.7,4l0.8,0.4h-3l0.7-0.4l-0.6-0.9h-2.9L99,40.2L99,40.2z M101,37.2
			L99.8,39h2.4L101,37.2L101,37.2z"/>
	</g>
	<g>
		<polygon class="st0" points="109.2,40.2 109.9,40.6 107.1,40.6 107.9,40.2 107.9,36.6 106.4,36.6 105.4,37.1 105.4,36.2 
			111.7,36.2 111.7,37.1 110.7,36.6 109.2,36.6 109.2,40.2 		"/>
	</g>
	<g>
		<polygon class="st0" points="112.5,36.2 115.3,36.2 114.6,36.6 114.6,40.2 115.3,40.6 112.5,40.6 113.3,40.2 113.3,36.6 
			112.5,36.2 		"/>
	</g>
	<g>
		<path class="st1" d="M116.3,38.4c0-0.6,0.3-1.1,1-1.6c0.7-0.5,1.6-0.7,2.7-0.7c1.1,0,2,0.2,2.7,0.7c0.7,0.4,1,1,1,1.6
			c0,0.6-0.3,1.1-1,1.6c-0.7,0.5-1.6,0.7-2.7,0.7c-1.1,0-2-0.2-2.7-0.7C116.7,39.5,116.3,39,116.3,38.4L116.3,38.4z M118,38.4
			c0,0.5,0.1,0.9,0.4,1.3c0.4,0.4,0.9,0.6,1.7,0.6c0.8,0,1.3-0.2,1.7-0.6c0.3-0.3,0.4-0.8,0.4-1.3c0-0.5-0.1-0.9-0.4-1.3
			c-0.4-0.4-0.9-0.6-1.7-0.6c-0.8,0-1.3,0.2-1.7,0.6C118.1,37.4,118,37.9,118,38.4L118,38.4z"/>
	</g>
	<g>
		<polygon class="st0" points="126.3,40.2 127,40.6 124.7,40.6 125.4,40.2 125.4,36.6 124.7,36.2 126.8,36.2 130.5,39.1 130.5,36.6 
			129.7,36.2 132.1,36.2 131.3,36.6 131.3,41 126.3,37.1 126.3,40.2 		"/>
	</g>
	<g>
		<path class="st0" d="M139.7,36.2c0.9,0,1.6,0.1,2.2,0.3v0.9l-1.2-0.6c-0.3-0.1-0.6-0.2-1-0.2c-0.8,0-1.3,0.2-1.7,0.6
			c-0.3,0.3-0.4,0.8-0.4,1.3c0,0.5,0.2,0.9,0.5,1.3c0.4,0.4,0.9,0.6,1.7,0.6c0.4,0,0.7-0.1,1-0.2l1.2-0.6v0.9
			c-0.6,0.2-1.3,0.3-2.2,0.3c-1.1,0-2-0.2-2.7-0.7c-0.7-0.4-1-0.9-1-1.5c0-0.6,0.3-1.1,1-1.6C137.7,36.4,138.6,36.2,139.7,36.2
			L139.7,36.2z"/>
	</g>
	<g>
		<polygon class="st0" points="147.9,39.7 147.9,40.6 142.7,40.6 143.5,40.2 143.5,36.6 142.7,36.2 145.6,36.2 144.8,36.6 
			144.8,40.2 146.9,40.2 147.9,39.7 		"/>
	</g>
	<g>
		<path class="st0" d="M149.2,39.4v-2.8l-0.8-0.4h2.8l-0.7,0.4v2.8c0,0.2,0.2,0.4,0.5,0.6c0.4,0.2,0.8,0.3,1.3,0.3
			c0.5,0,0.9-0.1,1.3-0.3c0.4-0.2,0.5-0.4,0.5-0.6v-2.8l-0.7-0.4h2.3l-0.7,0.4v2.8c0,0.4-0.3,0.7-0.9,0.9c-0.6,0.2-1.2,0.3-2,0.3
			c-0.8,0-1.4-0.1-2-0.3C149.5,40.1,149.2,39.8,149.2,39.4L149.2,39.4z"/>
	</g>
	<g>
		<path class="st1" d="M156.5,40.6l0.8-0.4v-3.6l-0.8-0.4h3c0.8,0,1.5,0.1,2,0.3c0.6,0.2,0.9,0.5,0.9,0.9c0,0.2-0.1,0.4-0.4,0.5
			c-0.3,0.2-0.7,0.3-1.1,0.4c0.5,0,1,0.2,1.4,0.4c0.4,0.2,0.6,0.5,0.6,0.7c0,0.4-0.3,0.7-1,0.9c-0.5,0.2-1.2,0.2-2,0.2H156.5
			L156.5,40.6z M158.6,36.6v1.6h0.9c0.4,0,0.8-0.1,1.1-0.2s0.4-0.3,0.4-0.6c0-0.2-0.1-0.4-0.4-0.6c-0.3-0.2-0.6-0.3-1.1-0.3H158.6
			L158.6,36.6z M159.8,40.2c0.5,0,0.8-0.1,1.1-0.2c0.3-0.1,0.5-0.3,0.5-0.6c0-0.2-0.2-0.4-0.5-0.6c-0.3-0.2-0.7-0.3-1.1-0.3h-1.2
			v1.6H159.8L159.8,40.2z"/>
	</g>
	<g>
		<path class="st1" d="M173,40.2l0.7,0.4h-1.9l-2.1-2h-1v1.6l0.8,0.4h-2.8l0.8-0.4v-3.6l-0.8-0.4h3c0.8,0,1.5,0.1,2.1,0.3
			c0.6,0.2,0.9,0.5,0.9,0.9c0,0.2-0.2,0.4-0.5,0.6c-0.3,0.2-0.7,0.3-1.2,0.4L173,40.2L173,40.2z M168.8,36.6v1.6h0.9
			c0.4,0,0.8-0.1,1.1-0.2c0.3-0.2,0.4-0.4,0.4-0.6c0-0.2-0.1-0.4-0.4-0.6c-0.3-0.2-0.6-0.3-1.1-0.3H168.8L168.8,36.6z"/>
	</g>
	<g>
		<polygon class="st0" points="179.4,40.6 174,40.6 174.7,40.2 174.7,36.6 174,36.2 179.4,36.2 179.4,37.1 178.5,36.6 176.1,36.6 
			176.1,38.1 177.8,38.1 178.5,37.7 178.5,38.8 177.8,38.4 176.1,38.4 176.1,40.2 178.5,40.2 179.4,39.7 179.4,40.6 		"/>
	</g>
	<g>
		<path class="st0" d="M185.4,39.3c0,0.4-0.2,0.7-0.7,1c-0.5,0.3-1.2,0.4-2.1,0.4c-0.2,0-0.4,0-0.6,0l-1.8-0.2l0.9-0.8l1,0.6
			c0.2,0.1,0.5,0.1,0.7,0.1c0.5,0,0.9-0.1,1.2-0.3c0.2-0.1,0.3-0.3,0.3-0.5c0-0.2-0.2-0.4-0.6-0.5l-2.1-0.7
			c-0.4-0.1-0.6-0.3-0.9-0.4c-0.2-0.2-0.3-0.4-0.3-0.6c0-0.4,0.3-0.7,0.8-0.9c0.5-0.2,1-0.3,1.7-0.3c0.2,0,0.5,0,0.7,0l1.7,0.2
			l-0.9,0.7l-0.9-0.5c-0.2,0-0.4-0.1-0.6-0.1c-0.4,0-0.7,0.1-1,0.2c-0.2,0.1-0.3,0.3-0.3,0.4c0,0.3,0.3,0.5,0.9,0.7l2.1,0.7
			C185.1,38.6,185.4,38.9,185.4,39.3L185.4,39.3z"/>
	</g>
	<g>
		<path class="st1" d="M186.2,38.4c0-0.6,0.3-1.1,1-1.6c0.7-0.5,1.6-0.7,2.7-0.7c1.1,0,2,0.2,2.7,0.7c0.7,0.4,1,1,1,1.6
			c0,0.6-0.3,1.1-1,1.6c-0.7,0.5-1.6,0.7-2.7,0.7c-1.1,0-2-0.2-2.7-0.7C186.5,39.5,186.2,39,186.2,38.4L186.2,38.4z M187.8,38.4
			c0,0.5,0.1,0.9,0.4,1.3c0.4,0.4,0.9,0.6,1.7,0.6c0.8,0,1.3-0.2,1.7-0.6c0.3-0.3,0.4-0.8,0.4-1.3c0-0.5-0.1-0.9-0.4-1.3
			c-0.4-0.4-0.9-0.6-1.7-0.6c-0.8,0-1.3,0.2-1.7,0.6C187.9,37.4,187.8,37.9,187.8,38.4L187.8,38.4z"/>
	</g>
	<g>
		<path class="st1" d="M200.8,40.2l0.7,0.4h-1.9l-2.1-2h-1v1.6l0.8,0.4h-2.8l0.8-0.4v-3.6l-0.8-0.4h3c0.8,0,1.5,0.1,2.1,0.3
			c0.6,0.2,0.9,0.5,0.9,0.9c0,0.2-0.2,0.4-0.5,0.6c-0.3,0.2-0.7,0.3-1.2,0.4L200.8,40.2L200.8,40.2z M196.6,36.6v1.6h0.9
			c0.4,0,0.8-0.1,1.1-0.2c0.3-0.2,0.4-0.4,0.4-0.6c0-0.2-0.1-0.4-0.4-0.6c-0.3-0.2-0.6-0.3-1.1-0.3H196.6L196.6,36.6z"/>
	</g>
	<g>
		<polygon class="st0" points="205.4,40.2 206.2,40.6 203.3,40.6 204.1,40.2 204.1,36.6 202.6,36.6 201.6,37.1 201.6,36.2 
			207.9,36.2 207.9,37.1 206.9,36.6 205.4,36.6 205.4,40.2 		"/>
	</g>
	<g>
		<rect x="0" y="31.8" class="st0" width="216.5" height="1.4"/>
	</g>
</g>
</svg>
